<svg id="Layer_1" data-name="Layer 1" xmlns="http://www.w3.org/2000/svg" viewBox="0 0 1516.42 1010.95"><defs><style>.cls-1{fill:#da1f29;}.cls-2{fill:#fff;}</style></defs><ellipse class="cls-1" cx="758.21" cy="505.47" rx="1072.27" ry="714.85"/><path class="cls-2" d="M335.52,553.09H290.71v9.18H434.65v-9.12H429c-12,0-24-.11-36,.06-3.65,0-5.22-.63-5.21-4.88.16-51.16.11-102.32.13-153.49,0-1.59.2-3.17.3-4.65H531.46V553.27H485.19v9H628.66v-9.09c-13.77,0-27.24-.14-40.7.1-3.93.06-5.1-1-5.1-5Q583,388,583,227.77c0-1.58.19-3.16.32-5.14h45.38v-8.87H485.13v9h46.33V377.26H388.17V222.63h46.46V213.8H290.7v9.11h44.82Z"/><path class="cls-2" d="M624.8,423.35c6.29,42.92,25,79.93,57.17,109.24,34.77,31.61,75.41,43.45,121.51,31.64,33.9-8.68,59.41-29.83,79.83-57.49,26.06-35.3,37.32-75.3,37.21-118.9-.6-9-.93-18-1.86-26.9-4.82-46.41-24.1-85.76-58.39-117.48C817.62,204,760.35,195.9,710.61,222.91c-36.22,19.67-59.93,50.67-75,88.44C621.15,347.54,619.21,385.25,624.8,423.35Zm57.55-13.27c0-29.48.28-59,1.52-88.44a224.62,224.62,0,0,1,5.87-42.4c6.62-27.66,24.7-45.52,51.62-54,29.5-9.3,57.65-5.93,83.29,11.83,19.54,13.53,28.68,33.62,30.74,56.47,2.85,31.65,4.21,63.42,6.06,92.84-1.72,31.54-2.83,60.66-5.07,89.7-1.39,17.87-5.76,35.21-17.45,49.65-13.23,16.33-31,24.84-51.24,28.37-25.2,4.38-48.8-.27-69.93-14.85-17.6-12.15-26.37-30-30.13-50.52C682.87,462.73,682.3,436.39,682.35,410.08Z"/><path class="cls-2" d="M941.53,315.75c5.09-22.3,11.49-44.11,24.25-63.45,11.86-18,28.2-28.4,50.14-29,11.49-.29,23-.41,34.47-.57a10.31,10.31,0,0,1,2.26.46V553.16h-51.87v9.09H1154.3v-9.08h-50.43V223.82c13.42,0,26.78-.79,40,.18,20.51,1.51,36.25,11.9,46.34,29.73a278.61,278.61,0,0,1,16.22,34.16c4.6,11.52,7.84,23.59,11.7,35.48h7.69c-2.64-36.77-5.26-73.21-7.88-109.67H935.69c-1.48,36.73-3,73.21-4.43,109.82h8.48C940.35,320.88,941,318.31,941.53,315.75Z"/><path d="M629,612.18c-14.75-16.2-32.64-26.82-54.85-28.45-24.53-1.8-45.51,6.74-62.85,23.88-23.9,23.64-34.45,52.74-34.08,82.81-.07,36.13,9.92,65.17,33.53,88.58,22,21.84,48.37,29.85,78.69,21.55,21-5.76,36.43-19.54,48.69-37,15.82-22.5,21.38-47.84,20.59-75.09C657.9,659.4,648.72,633.77,629,612.18ZM621.36,731.5c-.06,9.21-1.77,18.51-3.65,27.58-3.84,18.48-16,29.59-33.72,34.35-19.49,5.23-37.65,2.13-53.08-11.66-10.78-9.63-14-22.82-15.13-36.4C514.38,728,514,710.48,513,690.5c1.08-16.62,1.55-35.78,3.73-54.75,2.7-23.44,16.71-38.1,38.9-43,21.38-4.72,44.14,3.4,55.46,19.77,6.79,9.83,9,21.2,9.29,32.64Q621.64,688.31,621.36,731.5Z"/><path d="M808.82,602c-12.59-10.39-27.45-14.08-43.19-14.32-32.64-.51-65.29-.49-97.94-.68h-5.83c-.13,1.39-.22,2-.25,2.7s0,1.63,0,3.26c7.8,0,15.12,0,22.43,0,6.42,0,6.44.06,6.44,6.65v187.9c0,6.64,0,6.66-6.92,6.68-7.24,0-14.48,0-22,0,.12,2.38.21,4,.29,5.63h87.34v-5.66H720.92V697.57c11.28,0,22.24.13,33.2,0,16.25-.24,32.17-2.14,46.74-10.24C833.36,669.24,837.4,625.62,808.82,602Zm-16.6,57.79c-1.39,18.45-11.1,28.23-29.82,30-13.64,1.26-27.49.24-41.52.24V592.84c15.9.84,31.7.74,47.22,2.77,13.66,1.78,21.95,11.27,23.28,24.92A229.16,229.16,0,0,1,792.22,659.81Z"/><path d="M465.55,590.63c-.24-3.71-2.51-3.62-5.14-3.62q-81.48,0-163,0c-3.42,0-4.69,1-4.79,4.51-.59,19.48-1.37,38.95-2.06,58.42-.06,1.45.11,2.9.17,4.16,4,1.53,4.92-.45,5.81-3.47,2.8-9.53,5-19.35,9-28.39,12.72-28.82,28.15-31.08,58.71-28.37V794.18H332.83v5.6h93.46V794H395.82V593.4c6.38,0,12.49.06,18.59,0,17.93-.22,30.07,8.74,37.13,24.5,4.74,10.57,8.22,21.7,12.18,32.61,1,2.78,1.77,5.58,5.87,3.24,0-1.52.1-3.18,0-4.83C468.24,629.49,466.81,610.06,465.55,590.63Z"/><path d="M1190.1,674.17c-7.86-3.06-16.19-4.91-24.22-7.54-12-3.93-24.12-7.36-35.65-12.29-11.73-5-15.44-16.6-14.2-28.75,2.23-21.67,21.83-35,42.63-34.68,22.09.28,40.88,15.5,46.87,36.81,1.06,3.78,1.79,7.64,2.66,11.38h7.48c-.64-18.65-1.27-36.9-1.92-55.92-7.88,2-8.93,10.07-14.51,13.61l-8.86-5.16c-21.38-12.5-49.52-10.83-67.81,4.79-16.1,13.77-22.54,32-22.09,52.91.52,24.4,13.68,42.08,37,49.22,14.11,4.32,28.53,7.69,42.57,12.21,12.89,4.15,24.31,10.86,28.29,25,7.59,27.09-6.93,58.44-43.8,59.62-26.83.86-52.3-19.47-58.94-46.39-1.18-4.81-2.1-9.69-3.15-14.62h-7.31c.58,22.05,1.14,43.6,1.7,65,4,1.35,6.4.46,8.38-2.84,2.68-4.47,5.85-8.64,9-13.23,11.26,11,23.9,17.91,39,19.66,22.47,2.6,42.13-2.94,56.41-21.41,14.56-18.82,18.15-40.6,15.12-63.73C1222,696.43,1210,682,1190.1,674.17Z"/><path d="M1067.61,744.72c-1.87,4.79-4.09,9.45-6.28,14.11-6.11,13-15,23.5-27.63,30.66-24,13.69-55.65,7.3-70.58-14.25-6.8-9.81-8.83-21.18-9.4-32.64C952,708,952,673.33,955.64,638.79c1.38-13,5.32-25.1,15.21-34.36,23.72-22.22,66.77-16.57,84.37,11.43,5.14,8.19,8.63,17.41,13.11,26.64l4-.32V586.29c-8.08,2.6-8.73,10.84-13.89,15.48-2.72-1.73-5.22-3.36-7.75-4.92-12-7.42-24.75-13-39.19-13.23-29.49-.52-52.7,12.3-71,34.53-16.52,20.12-24,43.82-25.28,69.59-1.74,35.39,7.29,67.18,33.59,92,24.07,22.77,52.39,30.34,84.21,18.51,8.75-3.25,16.67-8.75,25.43-13.47,2.57,3.92,5.32,8.45,8.44,12.7.91,1.23,2.88,1.69,4.36,2.51.73-1.46,2-2.89,2.08-4.37.51-12.65.84-25.31,1.12-38,.13-5.62,0-11.24,0-16.73C1070.63,739.64,1068.89,741.4,1067.61,744.72Z"/><path d="M885.61,593h27.65v-5.53h-87.4V593h27.5V794.19H825.92v5.67h87.36v-5.67H885.61Z"/></svg>